<svg xmlns="http://www.w3.org/2000/svg" width="19.5" height="19.5"><path d="M 9.75 0 C 4.365 0 0 4.365 0 9.75 C 0 15.135 4.365 19.5 9.75 19.5 C 15.135 19.5 19.5 15.135 19.5 9.75 C 19.49 4.37 15.13 0.01 9.75 0 Z M 14.391 8.044 L 8.897 13.294 C 8.755 13.427 8.567 13.501 8.372 13.5 C 8.179 13.503 7.994 13.429 7.856 13.294 L 5.109 10.669 C 4.902 10.488 4.81 10.208 4.871 9.939 C 4.931 9.67 5.134 9.456 5.399 9.382 C 5.664 9.307 5.949 9.384 6.141 9.581 L 8.372 11.709 L 13.359 6.956 C 13.662 6.692 14.12 6.714 14.397 7.005 C 14.673 7.297 14.671 7.755 14.391 8.044 Z" fill="#333" stroke-width="0.13" stroke="rgba(0,0,0,1)" stroke-miterlimit="10"></path></svg>